<svg xmlns="http://www.w3.org/2000/svg" viewBox="0 0 336.45999 117.69867" height="117.699" width="336.46"><defs><clipPath id="a"><path d="M0 88.274h252.345V0H0z"/></clipPath><clipPath id="b"><path d="M14.05 84.48h35.53V6.473H14.05z"/></clipPath><clipPath id="c"><path d="M14.192 63.477H49.58v-36.81H14.192z"/></clipPath><clipPath id="d"><path d="M14.05 78.91h35.53V41.736H14.05z"/></clipPath><clipPath id="e"><path d="M14.05 82.78h31.667V51H14.05z"/></clipPath><clipPath id="f"><path d="M14.05 84.48h35.53V47.91H14.05z"/></clipPath><clipPath id="g"><path d="M14.05 75.825h35.53V38.648H14.05z"/></clipPath><clipPath id="h"><path d="M14.05 72.738h35.53v-37.18H14.05z"/></clipPath><clipPath id="i"><path d="M14.05 66.565h35.53v-37.16H14.05z"/></clipPath><clipPath id="j"><path d="M14.05 69.65h35.53V32.47H14.05z"/></clipPath><clipPath id="k"><path d="M14.05 80.614h23.358v-23.44h-23.36z"/></clipPath><clipPath id="l"><path d="M14.05 79.202h12.726v-12.77H14.05z"/></clipPath><clipPath id="m"><path d="M14.05 81.48h27.297V54.087H14.05z"/></clipPath><clipPath id="n"><path d="M14.05 78.818h6.19v-6.21h-6.19z"/></clipPath><clipPath id="o"><path d="M14.05 78.733h3.03v-3.04h-3.03z"/></clipPath><clipPath id="p"><path d="M14.05 78.968h9.416V69.52H14.05z"/></clipPath><clipPath id="q"><path d="M14.758 60.39H49.58V24.32H14.758z"/></clipPath><clipPath id="r"><path d="M14.05 79.535h16.133V63.347H14.048z"/></clipPath><clipPath id="s"><path d="M14.05 79.99h19.663V60.26H14.05z"/></clipPath><clipPath id="t"><path d="M14.05 81.997h35.53V44.822H14.05z"/></clipPath><clipPath id="u"><path d="M43.29 17.15h6.29v-6.782h-6.29z"/></clipPath><clipPath id="v"><path d="M38.602 23.33H49.58V11.99H38.602z"/></clipPath><clipPath id="w"><path d="M41.01 20.24h8.57v-8.983h-8.57z"/></clipPath><clipPath id="x"><path d="M36.132 26.42H49.58V12.612H36.132z"/></clipPath><clipPath id="y"><path d="M47.26 10.97h2.32V7.955h-2.32z"/></clipPath><clipPath id="z"><path d="M45.37 14.06h4.21V9.273h-4.21z"/></clipPath><clipPath id="A"><path d="M15.657 57.303H49.58v-35.03H15.657z"/></clipPath><clipPath id="B"><path d="M33.662 29.51H49.58V13.222H33.662z"/></clipPath><clipPath id="C"><path d="M48.89 7.882h.69V6.474h-.69z"/></clipPath><clipPath id="D"><path d="M18.226 51.127H49.58V18.903H18.226z"/></clipPath><clipPath id="E"><path d="M19.853 48.04H49.58V17.56H19.853z"/></clipPath><clipPath id="F"><path d="M21.718 44.952H49.58v-28.48H21.718z"/></clipPath><clipPath id="G"><path d="M16.824 54.216H49.58V20.473H16.824z"/></clipPath><clipPath id="H"><path d="M26.25 38.774h23.33V15.047H26.25z"/></clipPath><clipPath id="I"><path d="M23.849 41.863h25.73V15.667H23.85z"/></clipPath><clipPath id="J"><path d="M28.722 35.685H49.58V14.44H28.722z"/></clipPath><clipPath id="K"><path d="M31.19 32.598h18.39V13.83H31.19z"/></clipPath></defs><g clip-path="url(#a)" transform="matrix(1.33333 0 0 -1.33333 0 117.7)"><path d="M88.337 81.927h-3.223c-27.42 0-35.532 6.347-35.532 6.347s-8.112-6.347-35.533-6.347h-3.223V29.902c0-5.26 2.22-9.917 5.953-13.418 2.37-2.557 5.492-4.52 9.102-5.41l13.306-3.28c3.416-.842 6.91-2.005 9.315-4.81L50.97 0l2.468 2.984c2.405 2.805 5.9 3.968 9.315 4.81l13.305 3.28c8.048 1.982 13.667 9.155 13.667 17.442V80.54z" fill="#8b0f03"/><path d="M49.582 3.734l1.34 1.606c2.677 3.12 6.43 4.385 10.087 5.284l13.304 3.28c7.38 1.82 12.536 8.397 12.536 15.998v50.54h-1.735c-27.372 0-35.533 6.106-35.533 6.106s-8.16-6.107-35.532-6.107h-1.736V29.903c0-7.6 5.156-14.177 12.536-15.997l13.304-3.28c3.658-.9 7.41-2.166 10.09-5.285z" fill="#fff"/><path d="M49.582 6.472c2.865 3.338 6.74 4.787 11.013 5.838L73.9 15.59c6.576 1.62 11.215 7.544 11.215 14.312v48.8c-26.608 0-35.533 5.778-35.533 5.778s-8.925-5.777-35.532-5.777v-48.8c0-6.77 4.638-12.693 11.215-14.314l13.304-3.28c4.27-1.05 8.148-2.5 11.012-5.838" fill="#b10e21"/><g clip-path="url(#b)" opacity=".5"><g clip-path="url(#c)"><path d="M49.58 63.477L14.19 27.95c.058-.434.134-.862.23-1.284l35.157 35.298z" fill="#8b0f03"/></g><g clip-path="url(#d)"><path d="M49.58 78.91L14.05 43.25v-1.515l35.53 35.662z" fill="#8b0f03"/></g><g clip-path="url(#e)"><path d="M43.497 82.066L14.05 52.512V51l31.667 31.78c-.65-.228-1.387-.468-2.22-.714" fill="#8b0f03"/></g><g clip-path="url(#f)"><path d="M49.58 84.48c-.005-.005-.4-.256-1.25-.65L14.05 49.422V47.91l35.53 35.66z" fill="#8b0f03"/></g><g clip-path="url(#g)"><path d="M49.58 75.825L14.05 40.16V38.65L49.58 74.31z" fill="#8b0f03"/></g><g clip-path="url(#h)"><path d="M49.58 72.738L14.05 37.072V35.56l35.53 35.664z" fill="#8b0f03"/></g><g clip-path="url(#i)"><path d="M49.58 66.565l-35.53-35.67v-.993c0-.166.015-.33.02-.497L49.58 65.05z" fill="#8b0f03"/></g><g clip-path="url(#j)"><path d="M49.58 69.65L14.05 33.983V32.47l35.53 35.667z" fill="#8b0f03"/></g><g clip-path="url(#k)"><path d="M35.57 80.28L14.05 58.686v-1.512l23.358 23.44c-.59-.112-1.197-.224-1.838-.332" fill="#8b0f03"/></g><g clip-path="url(#l)"><path d="M25.142 79.075L14.05 67.945v-1.512l12.726 12.77c-.536-.046-1.076-.09-1.634-.128" fill="#8b0f03"/></g><g clip-path="url(#m)"><path d="M39.376 81.016L14.05 55.6v-1.514L41.346 81.48c-.62-.155-1.273-.31-1.97-.464" fill="#8b0f03"/></g><g clip-path="url(#n)"><path d="M18.68 78.765l-4.63-4.646v-1.513l6.19 6.21c-.514-.02-1.028-.038-1.56-.052" fill="#8b0f03"/></g><g clip-path="url(#o)"><path d="M15.553 78.714l-1.504-1.51v-1.51l3.03 3.04c-.502-.01-1.01-.016-1.526-.02" fill="#8b0f03"/></g><g clip-path="url(#p)"><path d="M21.877 78.885L14.05 71.03v-1.51l9.416 9.45c-.52-.032-1.053-.058-1.59-.084" fill="#8b0f03"/></g><g clip-path="url(#q)"><path d="M49.58 60.39L14.756 25.43c.12-.377.256-.745.405-1.11L49.58 58.877z" fill="#8b0f03"/></g><g clip-path="url(#r)"><path d="M28.5 79.358l-14.45-14.5v-1.51L30.18 79.534c-.548-.062-1.108-.12-1.683-.177" fill="#8b0f03"/></g><g clip-path="url(#s)"><path d="M31.966 79.75L14.05 61.772V60.26l19.663 19.73c-.564-.082-1.148-.162-1.747-.24" fill="#8b0f03"/></g><g clip-path="url(#t)"><path d="M49.58 81.997l-35.53-35.66V44.82l35.53 35.66z" fill="#8b0f03"/></g><g><g clip-path="url(#u)"><path d="M49.58 17.15l-6.29-6.318c.354-.146.7-.303 1.044-.463l5.245 5.265z" fill="#8b0f03"/></g></g><g><g clip-path="url(#v)"><path d="M49.58 23.33L38.6 12.304c.404-.102.8-.208 1.196-.315l9.783 9.825z" fill="#8b0f03"/></g></g><g><g clip-path="url(#w)"><path d="M49.58 20.24l-8.57-8.607c.382-.12.76-.244 1.134-.375l7.435 7.468z" fill="#8b0f03"/></g></g><g><g clip-path="url(#x)"><path d="M49.58 26.42L36.13 12.91l1.21-.297 12.237 12.29z" fill="#8b0f03"/></g></g><g><g clip-path="url(#y)"><path d="M49.58 10.97l-2.32-2.33c.282-.213.55-.452.822-.687l1.497 1.502z" fill="#8b0f03"/></g></g><g><g clip-path="url(#z)"><path d="M49.58 14.06l-4.21-4.228c.322-.176.64-.363.95-.56l3.26 3.274z" fill="#8b0f03"/></g></g><g><g clip-path="url(#A)"><path d="M49.58 57.303l-33.923-34.06c.168-.33.348-.653.54-.97L49.58 55.79z" fill="#8b0f03"/></g></g><g><g clip-path="url(#B)"><path d="M49.58 29.51L33.66 13.52l1.21-.296 14.707 14.77z" fill="#8b0f03"/></g></g><g><g clip-path="url(#C)"><path d="M49.58 7.881l-.69-.69c.233-.235.47-.46.69-.716z" fill="#8b0f03"/></g></g><g><g clip-path="url(#D)"><path d="M49.58 51.127L18.224 19.645c.248-.255.503-.503.77-.742l30.584 30.71z" fill="#8b0f03"/></g></g><g><g clip-path="url(#E)"><path d="M49.58 48.04L19.852 18.19c.286-.218.578-.43.88-.63L49.58 46.527z" fill="#8b0f03"/></g></g><g><g clip-path="url(#F)"><path d="M49.58 44.95L21.716 16.975c.33-.18.667-.345 1.01-.502L49.58 43.437z" fill="#8b0f03"/></g></g><g><g clip-path="url(#G)"><path d="M49.58 54.215l-32.757-32.89c.21-.292.428-.574.66-.85L49.578 52.7z" fill="#8b0f03"/></g></g><g><g clip-path="url(#H)"><path d="M49.58 38.774l-23.33-23.43 1.21-.297L49.58 37.26z" fill="#8b0f03"/></g></g><g><g clip-path="url(#I)"><path d="M49.58 41.862l-25.732-25.84c.377-.134.76-.25 1.152-.355l24.58 24.681z" fill="#8b0f03"/></g></g><g><g clip-path="url(#J)"><path d="M49.58 35.685L28.72 14.737l1.21-.298L49.58 34.17z" fill="#8b0f03"/></g></g><g><g clip-path="url(#K)"><path d="M49.58 32.598l-18.39-18.47 1.21-.298 17.18 17.253z" fill="#8b0f03"/></g></g></g><path d="M15.438 28.516v48.8c25.907.178 34.146 5.777 34.146 5.777s9.96-5.57 35.53-5.767v1.377c-26.607 0-35.532 5.777-35.532 5.777s-8.925-5.777-35.532-5.777v-48.8c0-4.362 1.932-8.365 5.06-11.1-2.298 2.623-3.672 6.04-3.672 9.713M49.566 6.487l.016-.015v.002l-.016.013" fill="#8b0f03"/><path d="M38.397 48.552l-2.03 4.514 1.024 1.04c.434.436.765.827 1.007 1.262zm-8.58 10.49v-.066c-.008-.01-.017-.017-.025-.025l-.44-.436c-.02-.022-.04-.04-.057-.057H27.66v1.112h2.157zm52.137 6.983l-1.39 1.386h-18.89l-.002-.896-.898.897H52.75l-2.813-5.833-2.153 4.448-1.388 1.386h-8V62.02c-.237.466-.566.906-1.01 1.352l-2.47 2.464c-1.165 1.165-2.14 1.577-3.72 1.577h-12.6V45.59l1.39-1.388h7.674v6.22h.94l2.194-4.833 1.39-1.388h15.191V50.217l.275-.577.336-.707 1.39-1.386h3.213l.592 1.247v-3.206l1.39-1.386h7.59v.864l.856-.854 18.936-.01v6.93l-1.216 1.223v6.32l-.407.423h1.624z" fill="#8b0f03"/><path d="M25.032 62.194h4.283c.443 0 .692-.11.994-.416l.36-.36c.303-.302.387-.522.387-.964v-1.412c0-.442-.084-.662-.387-.967l-.444-.44c-.303-.306-.525-.418-.966-.418h-4.228zm8.469-7.477l1.62 1.646c.883.884 1.13 1.354 1.13 2.543v2.32c0 1.05-.247 1.77-1.13 2.655l-1.08 1.076c-.884.885-1.546 1.217-2.845 1.217h-11.36V46.828h5.197v6.218h3.736l2.825-6.218h5.456zM54.42 58.593V46.828h5.113v19.344h-6.005l-3.946-8.187-3.964 8.187h-5.982V46.83l5.112-.002V58.64l4.02-8.467h1.65zM68.11 51.279v3.23h10v4.31h-10v2.904h11.216v4.45l-16.413-.002s-.01-19.095-.02-19.343l16.433-.002v4.45z" fill="#fff"/><path d="M92.94 44.052v-8.31H7.497v8.336L0 38.318v-18.61h100.407V38.3z" fill="#8b0f03"/><path d="M92.844 40.933V35.98H7.57v4.953l-5.133-3.857v-15.14h95.54v15.141z" fill="#fff"/><path d="M39.675 19.482v13.163l-2.353-.805-1.615 4.768 5.623 2.098h4.325V19.482z" fill="#8b0f03"/><path d="M46.656 39.706H41.15l-.338-.126-4.546-1.695-1.818-.678.623-1.838.984-2.9.644-1.9 1.898.65.08.026V18.482h7.98v19.224zm-2-2V20.482h-3.98v13.563l-2.728-.934-.982 2.9 4.545 1.696z" fill="#fff"/><path d="M53.45 24.71c.094-.015.3-.034.73-.034h2.237c.46 0 .667.02.758.037.095.232.33 1.138.33 4.37 0 3.217-.233 4.14-.333 4.385-.088.018-.297.045-.755.045H54.18c-.424 0-.632-.025-.728-.042-.1-.242-.335-1.16-.335-4.388 0-3.242.237-4.143.332-4.372m-.154-5.228c-1.828 0-3.1.19-4.182 1.166-1.524 1.38-2.174 3.902-2.174 8.434 0 4.57.653 7.094 2.18 8.44 1.036.967 2.318 1.16 4.176 1.16H57.3c1.876 0 3.168-.194 4.222-1.18 1.51-1.36 2.16-3.883 2.16-8.42 0-4.5-.646-7.018-2.163-8.425-1.09-.98-2.42-1.175-4.22-1.175z" fill="#8b0f03"/><path d="M54.27 32.51h2.084c.073-.554.152-1.582.152-3.43 0-1.827-.077-2.85-.15-3.405h-2.09c-.072.556-.15 1.578-.15 3.406 0 1.848.08 2.876.153 3.43m3.03 7.17h-4.004c-2.043 0-3.57-.238-4.857-1.427-1.775-1.58-2.5-4.24-2.5-9.172 0-4.907.725-7.565 2.5-9.173 1.32-1.188 2.837-1.425 4.856-1.425H57.3c1.98 0 3.568.24 4.878 1.423 1.762 1.63 2.505 4.37 2.505 9.176 0 4.85-.75 7.594-2.504 9.177-1.265 1.182-2.808 1.424-4.88 1.424m-3.118-16.005h2.235c.934 0 1.204.074 1.425.27.27.222.664.885.664 5.136 0 4.252-.393 4.915-.664 5.16-.22.173-.49.27-1.425.27h-2.235c-.91 0-1.205-.097-1.4-.27-.272-.245-.665-.908-.665-5.16 0-4.25.393-4.913.664-5.134.197-.197.492-.27 1.402-.27m3.12 14.005c1.89 0 2.8-.22 3.537-.908 1.008-.91 1.843-2.703 1.843-7.69 0-4.965-.835-6.758-1.844-7.692-.737-.663-1.647-.908-3.54-.908h-4.004c-1.892 0-2.776.245-3.513.908-1.032.934-1.843 2.727-1.843 7.69 0 4.99.81 6.783 1.843 7.692.737.688 1.62.91 3.513.91H57.3" fill="#fff"/><path d="M8.08 26.518c0 1 .1 1.393.403 1.758.223.277.5.43.98.598l1.537.518c.375.125.473.214.526.313.072.116.108.276.108.543 0 .207-.045.384-.125.465-.09.09-.224.107-.555.107h-.67c-.33 0-.436-.044-.517-.125-.08-.08-.134-.312-.143-.794h-1.41c.01 1.036.143 1.465.428 1.75.214.215.58.312 1.196.312h1.74c.536 0 .866-.106 1.07-.31.314-.323.44-.867.42-1.456-.008-.6-.097-.938-.33-1.233-.214-.276-.562-.455-1.07-.633l-1.49-.518c-.25-.08-.42-.17-.52-.285-.106-.125-.142-.26-.142-.59v-.054h3.57v-1.17H8.082zM16.505 30.81c-.33 0-.437-.034-.51-.097-.097-.09-.24-.33-.24-1.875 0-1.544.143-1.785.24-1.865.073-.07.18-.1.51-.1h.812c.34 0 .438.03.518.1.098.08.24.32.24 1.865s-.142 1.786-.24 1.875c-.08.063-.18.098-.518.098zm1.134 1.152c.686 0 1.016-.08 1.284-.33.366-.33.67-.98.67-2.794 0-1.802-.304-2.454-.67-2.794-.268-.24-.598-.33-1.285-.33h-1.456c-.688 0-1.01.09-1.277.33-.375.34-.67.992-.67 2.794 0 1.813.295 2.464.67 2.794.268.25.59.33 1.277.33zM22.876 30.81c-.33 0-.437-.034-.51-.097-.097-.09-.24-.33-.24-1.875 0-1.544.143-1.785.24-1.865.073-.07.18-.1.51-.1h.812c.34 0 .438.03.518.1.098.08.24.32.24 1.865s-.142 1.786-.24 1.875c-.08.063-.18.098-.518.098zm1.134 1.152c.687 0 1.017-.08 1.285-.33.366-.33.67-.98.67-2.794 0-1.802-.304-2.454-.67-2.794-.268-.24-.598-.33-1.285-.33h-1.455c-.688 0-1.01.09-1.277.33-.375.34-.67.992-.67 2.794 0 1.813.295 2.464.67 2.794.268.25.59.33 1.277.33zM27.03 31.963h4.722v-.99l-2.65-5.258h-1.563l2.587 5.07H27.03zM70.82 26.518c0 1 .098 1.393.402 1.758.223.277.5.43.98.598l1.537.518c.374.125.472.214.525.313.072.116.108.276.108.543 0 .207-.045.384-.125.465-.09.09-.223.107-.554.107h-.67c-.33 0-.436-.044-.517-.125-.08-.08-.134-.312-.143-.794h-1.41c.01 1.036.143 1.465.428 1.75.214.215.58.312 1.196.312h1.74c.537 0 .867-.106 1.072-.31.313-.323.438-.867.42-1.456-.01-.6-.098-.938-.33-1.233-.215-.276-.563-.455-1.072-.633l-1.49-.518c-.25-.08-.42-.17-.518-.285-.107-.125-.143-.26-.143-.59v-.054h3.57v-1.17H70.82zM79.138 30.81c-.33 0-.438-.034-.51-.097-.097-.09-.24-.33-.24-1.875 0-1.544.142-1.785.24-1.865.073-.07.18-.1.51-.1h.81c.34 0 .44.03.52.1.097.08.24.32.24 1.865s-.142 1.786-.24 1.875c-.08.063-.18.098-.52.098zm1.133 1.152c.69 0 1.02-.08 1.287-.33.365-.33.668-.98.668-2.794 0-1.802-.302-2.454-.668-2.794-.27-.24-.6-.33-1.286-.33H78.82c-.688 0-1.01.09-1.277.33-.376.34-.67.992-.67 2.794 0 1.813.294 2.464.67 2.794.267.25.588.33 1.276.33zM84.277 25.715v4.928l-.99-.34-.358 1.054 1.65.616h1.143v-6.258zM87.08 31.963h4.72v-.99l-2.65-5.258h-1.562l2.588 5.07H87.08z" fill="#8b0f03"/><path d="M113.425 74.63h3.682c1.324 0 2.03.705 2.03 1.98 0 1.25-.99 1.818-2.22 1.818h-3.492zm-4.39 7.315h8.59c2.975 0 5.903-1.347 5.903-4.745 0-1.816-.874-3.54-2.644-4.226v-.045c1.795-.43 2.31-2.436 2.457-4.04.046-.708.116-3.185.71-3.8h-4.345c-.38.565-.45 2.22-.497 2.692-.117 1.7-.403 3.445-2.456 3.445h-3.327V65.09h-4.39zM133.467 68.514c2.833 0 3.917 2.5 3.917 5 0 2.504-1.084 5.006-3.917 5.006-2.833 0-3.92-2.502-3.92-5.005 0-2.5 1.087-5 3.92-5m0 13.784c5.31 0 8.308-3.898 8.308-8.785 0-4.885-3-8.78-8.308-8.78-5.314 0-8.31 3.895-8.31 8.78 0 4.887 2.996 8.784 8.31 8.784M155.19 76.1c-.237 1.698-1.56 2.594-3.4 2.594-2.834 0-3.918-2.5-3.918-5.003 0-2.502 1.084-5.003 3.92-5.003 2.052 0 3.23 1.18 3.398 3.117h4.387c-.23-4.345-3.42-6.896-7.692-6.896-5.1 0-8.403 3.896-8.403 8.783s3.304 8.783 8.403 8.783c3.635 0 7.58-2.315 7.692-6.374zM161.666 81.945h4.388v-6.467l5.55 6.467h5.45l-6.23-6.633 7.01-10.222h-5.453l-4.53 7.08-1.796-1.886V65.09h-4.388zM188.114 71.37v-6.28h-4.394v6.28l-6.133 10.575h4.975l3.353-6.847 3.354 6.847h4.98zM109.035 60.7h6.467l2.907-11.237h.044l2.902 11.238h6.47V43.846h-4.133V56.64h-.044l-3.545-12.795h-3.35l-3.542 12.795h-.045V43.845h-4.133zM138.223 47.267c2.83 0 3.917 2.504 3.917 5.004 0 2.503-1.087 5.006-3.917 5.006-2.834 0-3.922-2.503-3.922-5.005 0-2.5 1.09-5.003 3.923-5.003m0 13.788c5.31 0 8.305-3.896 8.305-8.784 0-4.884-2.995-8.78-8.305-8.78-5.314 0-8.31 3.896-8.31 8.78 0 4.89 2.996 8.785 8.31 8.785M163.22 50.81c0-4.89-2.243-7.322-7.342-7.322-5.098 0-7.34 2.433-7.34 7.32v9.893h4.39V50.55c0-2.175.802-3.283 2.95-3.283 2.147 0 2.95 1.108 2.95 3.283V60.7h4.39zM166.002 60.7h4.506l5.855-10.388h.05v10.39h4.128V43.844h-4.503L170.18 54.35h-.047V43.845h-4.13zM197.135 56.922h-5.025V43.844h-4.392v13.078h-5.03v3.78h14.447zM202.24 50.124h3.824l-1.86 5.9h-.052zM201.96 60.7h4.46l6.304-16.856h-4.576l-1.04 3.023h-5.878l-1.06-3.023h-4.51zM214.18 60.7h4.392V43.846h-4.39zM221.35 60.7h4.503l5.857-10.388h.045v10.39h4.136V43.844h-4.51l-5.852 10.505h-.047V43.845h-4.13zM109.035 39.456h13.43v-3.52h-9.04v-2.95h8.262v-3.403h-8.262v-3.208h9.276V22.6h-13.665zM134.163 29.468l1.653-1.605c.544.9.755 2.028.755 3.165 0 2.5-1.083 5.002-3.915 5.002-2.834 0-3.92-2.503-3.92-5.003s1.086-5.003 3.92-5.003c.33 0 .613.017.872.093l-1.324 1.3zm4.726-8.613l-2.32 2.263c-1.108-.566-2.43-.876-3.915-.876-5.312 0-8.312 3.897-8.312 8.785 0 4.88 3 8.78 8.312 8.78 5.31 0 8.308-3.9 8.308-8.78 0-2.407-.73-4.557-2.1-6.14l2.03-1.96zM157.702 29.563c0-4.885-2.243-7.32-7.342-7.32-5.1 0-7.343 2.435-7.343 7.32v9.893h4.39V29.304c0-2.172.805-3.28 2.953-3.28 2.148 0 2.952 1.108 2.952 3.28v10.152h4.39zM160.48 39.456h4.39V22.6h-4.39zM172.037 31.615h2.95c1.37 0 2.36.57 2.36 2.102 0 1.583-1.016 2.22-2.36 2.22h-2.95zm-4.39 7.84h8c3.142 0 6.092-1.44 6.092-5.43 0-4.18-2.385-5.807-6.092-5.807h-3.61v-5.62h-4.39zM183.657 39.456h6.468l2.905-11.238h.047l2.903 11.238h6.468V22.6h-4.133v12.795h-.045L194.728 22.6h-3.35l-3.54 12.795h-.048V22.6h-4.133zM205.223 39.456h13.434v-3.52h-9.042v-2.95h8.262v-3.403h-8.262v-3.208h9.28V22.6h-13.672zM221.595 39.456h4.51l5.85-10.39h.048v10.39h4.133V22.6h-4.51l-5.854 10.502h-.048V22.6h-4.13z" fill="#fff"/><g><path d="M252.345 35.675h-5.03V22.6h-4.39v13.075h-5.03v3.78h14.45z" fill="#fff"/></g></g></svg>